<?xml version="1.0" encoding="utf-8"?>
<!-- Generator: Adobe Illustrator 26.0.0, SVG Export Plug-In . SVG Version: 6.00 Build 0)  -->
<svg version="1.1" xmlns="http://www.w3.org/2000/svg" xmlns:xlink="http://www.w3.org/1999/xlink" x="0px" y="0px"
	 viewBox="0 0 1920 1080" style="enable-background:new 0 0 1920 1080;" xml:space="preserve">
<style type="text/css">
	.st0{fill:#282E3E;}
	.st1{clip-path:url(#SVGID_00000011748702617316508640000001212104587668123531_);}
	.st2{fill:#FFFFFF;}
</style>
<g id="Layer_1">
	<g>
		<rect x="-5.5" y="0.5" class="st0" width="1926.5" height="1081.5"/>
		<path d="M1920.5,1v1080.5H-5V1H1920.5 M1921.5,0H-6v1082.5h1927.5V0L1921.5,0z"/>
	</g>
</g>
<g id="Layer_2">
	<g>
		<defs>
			<rect id="SVGID_1_" x="28.81" y="16.9" width="1876.53" height="1044.89"/>
		</defs>
		<clipPath id="SVGID_00000077306754675137383490000004639354757728440707_">
			<use xlink:href="#SVGID_1_"  style="overflow:visible;"/>
		</clipPath>
		<g style="clip-path:url(#SVGID_00000077306754675137383490000004639354757728440707_);">
			<g>
				<g>
					<polygon class="st2" points="78.76,16.9 90.92,52.68 128.71,53.19 98.44,75.81 109.63,111.91 78.76,90.11 47.89,111.91 
						59.08,75.81 28.81,53.19 66.6,52.68 					"/>
				</g>
			</g>
			<g>
				<g>
					<polygon class="st2" points="252.49,16.9 264.66,52.68 302.44,53.19 272.17,75.81 283.36,111.91 252.49,90.11 221.62,111.91 
						232.81,75.81 202.54,53.19 240.33,52.68 					"/>
				</g>
			</g>
			<g>
				<g>
					<polygon class="st2" points="426.22,16.9 438.39,52.68 476.17,53.19 445.91,75.81 457.1,111.91 426.22,90.11 395.35,111.91 
						406.54,75.81 376.28,53.19 414.06,52.68 					"/>
				</g>
			</g>
			<g>
				<g>
					<polygon class="st2" points="599.96,16.9 612.12,52.68 649.91,53.19 619.64,75.81 630.83,111.91 599.96,90.11 569.09,111.91 
						580.28,75.81 550.01,53.19 587.79,52.68 					"/>
				</g>
			</g>
			<g>
				<g>
					<polygon class="st2" points="773.69,16.9 785.85,52.68 823.64,53.19 793.37,75.81 804.56,111.91 773.69,90.11 742.82,111.91 
						754.01,75.81 723.74,53.19 761.53,52.68 					"/>
				</g>
			</g>
			<g>
				<g>
					<polygon class="st2" points="947.42,16.9 959.58,52.68 997.37,53.19 967.1,75.81 978.29,111.91 947.42,90.11 916.55,111.91 
						927.74,75.81 897.47,53.19 935.26,52.68 					"/>
				</g>
			</g>
			<g>
				<g>
					<polygon class="st2" points="1121.15,16.9 1133.32,52.68 1171.1,53.19 1140.83,75.81 1152.02,111.91 1121.15,90.11 
						1090.28,111.91 1101.47,75.81 1071.2,53.19 1108.99,52.68 					"/>
				</g>
			</g>
			<g>
				<g>
					<polygon class="st2" points="1294.88,16.9 1307.05,52.68 1344.83,53.19 1314.57,75.81 1325.75,111.91 1294.88,90.11 
						1264.01,111.91 1275.2,75.81 1244.94,53.19 1282.72,52.68 					"/>
				</g>
			</g>
			<g>
				<g>
					<polygon class="st2" points="1468.62,16.9 1480.78,52.68 1518.57,53.19 1488.3,75.81 1499.49,111.91 1468.62,90.11 
						1437.75,111.91 1448.94,75.81 1418.67,53.19 1456.45,52.68 					"/>
				</g>
			</g>
			<g>
				<g>
					<polygon class="st2" points="1642.35,16.9 1654.51,52.68 1692.3,53.19 1662.03,75.81 1673.22,111.91 1642.35,90.11 
						1611.48,111.91 1622.67,75.81 1592.4,53.19 1630.18,52.68 					"/>
				</g>
			</g>
			<g>
				<g>
					<polygon class="st2" points="1816.08,16.9 1828.24,52.68 1866.03,53.19 1835.76,75.81 1846.95,111.91 1816.08,90.11 
						1785.21,111.91 1796.4,75.81 1766.13,53.19 1803.92,52.68 					"/>
				</g>
			</g>
			<g>
				<g>
					<polygon class="st2" points="78.76,196.42 90.92,232.19 128.71,232.71 98.44,255.33 109.63,291.43 78.76,269.63 47.89,291.43 
						59.08,255.33 28.81,232.71 66.6,232.19 					"/>
				</g>
			</g>
			<g>
				<g>
					<polygon class="st2" points="252.49,196.42 264.66,232.19 302.44,232.71 272.17,255.33 283.36,291.43 252.49,269.63 
						221.62,291.43 232.81,255.33 202.54,232.71 240.33,232.19 					"/>
				</g>
			</g>
			<g>
				<g>
					<polygon class="st2" points="426.22,196.42 438.39,232.19 476.17,232.71 445.91,255.33 457.1,291.43 426.22,269.63 
						395.35,291.43 406.54,255.33 376.28,232.71 414.06,232.19 					"/>
				</g>
			</g>
			<g>
				<g>
					<polygon class="st2" points="599.96,196.42 612.12,232.19 649.91,232.71 619.64,255.33 630.83,291.43 599.96,269.63 
						569.09,291.43 580.28,255.33 550.01,232.71 587.79,232.19 					"/>
				</g>
			</g>
			<g>
				<g>
					<polygon class="st2" points="773.69,196.42 785.85,232.19 823.64,232.71 793.37,255.33 804.56,291.43 773.69,269.63 
						742.82,291.43 754.01,255.33 723.74,232.71 761.53,232.19 					"/>
				</g>
			</g>
			<g>
				<g>
					<polygon class="st2" points="947.42,196.42 959.58,232.19 997.37,232.71 967.1,255.33 978.29,291.43 947.42,269.63 
						916.55,291.43 927.74,255.33 897.47,232.71 935.26,232.19 					"/>
				</g>
			</g>
			<g>
				<g>
					<polygon class="st2" points="1121.15,196.42 1133.32,232.19 1171.1,232.71 1140.83,255.33 1152.02,291.43 1121.15,269.63 
						1090.28,291.43 1101.47,255.33 1071.2,232.71 1108.99,232.19 					"/>
				</g>
			</g>
			<g>
				<g>
					<polygon class="st2" points="1294.88,196.42 1307.05,232.19 1344.83,232.71 1314.57,255.33 1325.75,291.43 1294.88,269.63 
						1264.01,291.43 1275.2,255.33 1244.94,232.71 1282.72,232.19 					"/>
				</g>
			</g>
			<g>
				<g>
					<polygon class="st2" points="1468.62,196.42 1480.78,232.19 1518.57,232.71 1488.3,255.33 1499.49,291.43 1468.62,269.63 
						1437.75,291.43 1448.94,255.33 1418.67,232.71 1456.45,232.19 					"/>
				</g>
			</g>
			<g>
				<g>
					<polygon class="st2" points="1642.35,196.42 1654.51,232.19 1692.3,232.71 1662.03,255.33 1673.22,291.43 1642.35,269.63 
						1611.48,291.43 1622.67,255.33 1592.4,232.71 1630.18,232.19 					"/>
				</g>
			</g>
			<g>
				<g>
					<polygon class="st2" points="1816.08,196.42 1828.24,232.19 1866.03,232.71 1835.76,255.33 1846.95,291.43 1816.08,269.63 
						1785.21,291.43 1796.4,255.33 1766.13,232.71 1803.92,232.19 					"/>
				</g>
			</g>
			<g>
				<g>
					<polygon class="st2" points="78.76,375.93 90.92,411.71 128.71,412.22 98.44,434.85 109.63,470.94 78.76,449.15 47.89,470.94 
						59.08,434.85 28.81,412.22 66.6,411.71 					"/>
				</g>
			</g>
			<g>
				<g>
					<polygon class="st2" points="252.49,375.93 264.66,411.71 302.44,412.22 272.17,434.85 283.36,470.94 252.49,449.15 
						221.62,470.94 232.81,434.85 202.54,412.22 240.33,411.71 					"/>
				</g>
			</g>
			<g>
				<g>
					<polygon class="st2" points="426.22,375.93 438.39,411.71 476.17,412.22 445.91,434.85 457.1,470.94 426.22,449.15 
						395.35,470.94 406.54,434.85 376.28,412.22 414.06,411.71 					"/>
				</g>
			</g>
			<g>
				<g>
					<polygon class="st2" points="599.96,375.93 612.12,411.71 649.91,412.22 619.64,434.85 630.83,470.94 599.96,449.15 
						569.09,470.94 580.28,434.85 550.01,412.22 587.79,411.71 					"/>
				</g>
			</g>
			<g>
				<g>
					<polygon class="st2" points="773.69,375.93 785.85,411.71 823.64,412.22 793.37,434.85 804.56,470.94 773.69,449.15 
						742.82,470.94 754.01,434.85 723.74,412.22 761.53,411.71 					"/>
				</g>
			</g>
			<g>
				<g>
					<polygon class="st2" points="947.42,375.93 959.58,411.71 997.37,412.22 967.1,434.85 978.29,470.94 947.42,449.15 
						916.55,470.94 927.74,434.85 897.47,412.22 935.26,411.71 					"/>
				</g>
			</g>
			<g>
				<g>
					<polygon class="st2" points="1121.15,375.93 1133.32,411.71 1171.1,412.22 1140.83,434.85 1152.02,470.94 1121.15,449.15 
						1090.28,470.94 1101.47,434.85 1071.2,412.22 1108.99,411.71 					"/>
				</g>
			</g>
			<g>
				<g>
					<polygon class="st2" points="1294.88,375.93 1307.05,411.71 1344.83,412.22 1314.57,434.85 1325.75,470.94 1294.88,449.15 
						1264.01,470.94 1275.2,434.85 1244.94,412.22 1282.72,411.71 					"/>
				</g>
			</g>
			<g>
				<g>
					<polygon class="st2" points="1468.62,375.93 1480.78,411.71 1518.57,412.22 1488.3,434.85 1499.49,470.94 1468.62,449.15 
						1437.75,470.94 1448.94,434.85 1418.67,412.22 1456.45,411.71 					"/>
				</g>
			</g>
			<g>
				<g>
					<polygon class="st2" points="1642.35,375.93 1654.51,411.71 1692.3,412.22 1662.03,434.85 1673.22,470.94 1642.35,449.15 
						1611.48,470.94 1622.67,434.85 1592.4,412.22 1630.18,411.71 					"/>
				</g>
			</g>
			<g>
				<g>
					<polygon class="st2" points="1816.08,375.93 1828.24,411.71 1866.03,412.22 1835.76,434.85 1846.95,470.94 1816.08,449.15 
						1785.21,470.94 1796.4,434.85 1766.13,412.22 1803.92,411.71 					"/>
				</g>
			</g>
			<g>
				<g>
					<polygon class="st2" points="78.76,555.45 90.92,591.22 128.71,591.74 98.44,614.36 109.63,650.46 78.76,628.66 47.89,650.46 
						59.08,614.36 28.81,591.74 66.6,591.22 					"/>
				</g>
			</g>
			<g>
				<g>
					<polygon class="st2" points="252.49,555.45 264.66,591.22 302.44,591.74 272.17,614.36 283.36,650.46 252.49,628.66 
						221.62,650.46 232.81,614.36 202.54,591.74 240.33,591.22 					"/>
				</g>
			</g>
			<g>
				<g>
					<polygon class="st2" points="426.22,555.45 438.39,591.22 476.17,591.74 445.91,614.36 457.1,650.46 426.22,628.66 
						395.35,650.46 406.54,614.36 376.28,591.74 414.06,591.22 					"/>
				</g>
			</g>
			<g>
				<g>
					<polygon class="st2" points="599.96,555.45 612.12,591.22 649.91,591.74 619.64,614.36 630.83,650.46 599.96,628.66 
						569.09,650.46 580.28,614.36 550.01,591.74 587.79,591.22 					"/>
				</g>
			</g>
			<g>
				<g>
					<polygon class="st2" points="773.69,555.45 785.85,591.22 823.64,591.74 793.37,614.36 804.56,650.46 773.69,628.66 
						742.82,650.46 754.01,614.36 723.74,591.74 761.53,591.22 					"/>
				</g>
			</g>
			<g>
				<g>
					<polygon class="st2" points="947.42,555.45 959.58,591.22 997.37,591.74 967.1,614.36 978.29,650.46 947.42,628.66 
						916.55,650.46 927.74,614.36 897.47,591.74 935.26,591.22 					"/>
				</g>
			</g>
			<g>
				<g>
					<polygon class="st2" points="1121.15,555.45 1133.32,591.22 1171.1,591.74 1140.83,614.36 1152.02,650.46 1121.15,628.66 
						1090.28,650.46 1101.47,614.36 1071.2,591.74 1108.99,591.22 					"/>
				</g>
			</g>
			<g>
				<g>
					<polygon class="st2" points="1294.88,555.45 1307.05,591.22 1344.83,591.74 1314.57,614.36 1325.75,650.46 1294.88,628.66 
						1264.01,650.46 1275.2,614.36 1244.94,591.74 1282.72,591.22 					"/>
				</g>
			</g>
			<g>
				<g>
					<polygon class="st2" points="1468.62,555.45 1480.78,591.22 1518.57,591.74 1488.3,614.36 1499.49,650.46 1468.62,628.66 
						1437.75,650.46 1448.94,614.36 1418.67,591.74 1456.45,591.22 					"/>
				</g>
			</g>
			<g>
				<g>
					<polygon class="st2" points="1642.35,555.45 1654.51,591.22 1692.3,591.74 1662.03,614.36 1673.22,650.46 1642.35,628.66 
						1611.48,650.46 1622.67,614.36 1592.4,591.74 1630.18,591.22 					"/>
				</g>
			</g>
			<g>
				<g>
					<polygon class="st2" points="1816.08,555.45 1828.24,591.22 1866.03,591.74 1835.76,614.36 1846.95,650.46 1816.08,628.66 
						1785.21,650.46 1796.4,614.36 1766.13,591.74 1803.92,591.22 					"/>
				</g>
			</g>
			<g>
				<g>
					<polygon class="st2" points="78.76,734.96 90.92,770.74 128.71,771.25 98.44,793.88 109.63,829.97 78.76,808.18 47.89,829.97 
						59.08,793.88 28.81,771.25 66.6,770.74 					"/>
				</g>
			</g>
			<g>
				<g>
					<polygon class="st2" points="252.49,734.96 264.66,770.74 302.44,771.25 272.17,793.88 283.36,829.97 252.49,808.18 
						221.62,829.97 232.81,793.88 202.54,771.25 240.33,770.74 					"/>
				</g>
			</g>
			<g>
				<g>
					<polygon class="st2" points="426.22,734.96 438.39,770.74 476.17,771.25 445.91,793.88 457.1,829.97 426.22,808.18 
						395.35,829.97 406.54,793.88 376.28,771.25 414.06,770.74 					"/>
				</g>
			</g>
			<g>
				<g>
					<polygon class="st2" points="599.96,734.96 612.12,770.74 649.91,771.25 619.64,793.88 630.83,829.97 599.96,808.18 
						569.09,829.97 580.28,793.88 550.01,771.25 587.79,770.74 					"/>
				</g>
			</g>
			<g>
				<g>
					<polygon class="st2" points="773.69,734.96 785.85,770.74 823.64,771.25 793.37,793.88 804.56,829.97 773.69,808.18 
						742.82,829.97 754.01,793.88 723.74,771.25 761.53,770.74 					"/>
				</g>
			</g>
			<g>
				<g>
					<polygon class="st2" points="947.42,734.96 959.58,770.74 997.37,771.25 967.1,793.88 978.29,829.97 947.42,808.18 
						916.55,829.97 927.74,793.88 897.47,771.25 935.26,770.74 					"/>
				</g>
			</g>
			<g>
				<g>
					<polygon class="st2" points="1121.15,734.96 1133.32,770.74 1171.1,771.25 1140.83,793.88 1152.02,829.97 1121.15,808.18 
						1090.28,829.97 1101.47,793.88 1071.2,771.25 1108.99,770.74 					"/>
				</g>
			</g>
			<g>
				<g>
					<polygon class="st2" points="1294.88,734.96 1307.05,770.74 1344.83,771.25 1314.57,793.88 1325.75,829.97 1294.88,808.18 
						1264.01,829.97 1275.2,793.88 1244.94,771.25 1282.72,770.74 					"/>
				</g>
			</g>
			<g>
				<g>
					<polygon class="st2" points="1468.62,734.96 1480.78,770.74 1518.57,771.25 1488.3,793.88 1499.49,829.97 1468.62,808.18 
						1437.75,829.97 1448.94,793.88 1418.67,771.25 1456.45,770.74 					"/>
				</g>
			</g>
			<g>
				<g>
					<polygon class="st2" points="1642.35,734.96 1654.51,770.74 1692.3,771.25 1662.03,793.88 1673.22,829.97 1642.35,808.18 
						1611.48,829.97 1622.67,793.88 1592.4,771.25 1630.18,770.74 					"/>
				</g>
			</g>
			<g>
				<g>
					<polygon class="st2" points="1816.08,734.96 1828.24,770.74 1866.03,771.25 1835.76,793.88 1846.95,829.97 1816.08,808.18 
						1785.21,829.97 1796.4,793.88 1766.13,771.25 1803.92,770.74 					"/>
				</g>
			</g>
			<g>
				<g>
					<polygon class="st2" points="78.76,914.48 90.92,950.26 128.71,950.77 98.44,973.39 109.63,1009.49 78.76,987.69 
						47.89,1009.49 59.08,973.39 28.81,950.77 66.6,950.26 					"/>
				</g>
			</g>
			<g>
				<g>
					<polygon class="st2" points="252.49,914.48 264.66,950.26 302.44,950.77 272.17,973.39 283.36,1009.49 252.49,987.69 
						221.62,1009.49 232.81,973.39 202.54,950.77 240.33,950.26 					"/>
				</g>
			</g>
			<g>
				<g>
					<polygon class="st2" points="426.22,914.48 438.39,950.26 476.17,950.77 445.91,973.39 457.1,1009.49 426.22,987.69 
						395.35,1009.49 406.54,973.39 376.28,950.77 414.06,950.26 					"/>
				</g>
			</g>
			<g>
				<g>
					<polygon class="st2" points="599.96,914.48 612.12,950.26 649.91,950.77 619.64,973.39 630.83,1009.49 599.96,987.69 
						569.09,1009.49 580.28,973.39 550.01,950.77 587.79,950.26 					"/>
				</g>
			</g>
			<g>
				<g>
					<polygon class="st2" points="773.69,914.48 785.85,950.26 823.64,950.77 793.37,973.39 804.56,1009.49 773.69,987.69 
						742.82,1009.49 754.01,973.39 723.74,950.77 761.53,950.26 					"/>
				</g>
			</g>
			<g>
				<g>
					<polygon class="st2" points="947.42,914.48 959.58,950.26 997.37,950.77 967.1,973.39 978.29,1009.49 947.42,987.69 
						916.55,1009.49 927.74,973.39 897.47,950.77 935.26,950.26 					"/>
				</g>
			</g>
			<g>
				<g>
					<polygon class="st2" points="1121.15,914.48 1133.32,950.26 1171.1,950.77 1140.83,973.39 1152.02,1009.49 1121.15,987.69 
						1090.28,1009.49 1101.47,973.39 1071.2,950.77 1108.99,950.26 					"/>
				</g>
			</g>
			<g>
				<g>
					<polygon class="st2" points="1294.88,914.48 1307.05,950.26 1344.83,950.77 1314.57,973.39 1325.75,1009.49 1294.88,987.69 
						1264.01,1009.49 1275.2,973.39 1244.94,950.77 1282.72,950.26 					"/>
				</g>
			</g>
			<g>
				<g>
					<polygon class="st2" points="1468.62,914.48 1480.78,950.26 1518.57,950.77 1488.3,973.39 1499.49,1009.49 1468.62,987.69 
						1437.75,1009.49 1448.94,973.39 1418.67,950.77 1456.45,950.26 					"/>
				</g>
			</g>
			<g>
				<g>
					<polygon class="st2" points="1642.35,914.48 1654.51,950.26 1692.3,950.77 1662.03,973.39 1673.22,1009.49 1642.35,987.69 
						1611.48,1009.49 1622.67,973.39 1592.4,950.77 1630.18,950.26 					"/>
				</g>
			</g>
			<g>
				<g>
					<polygon class="st2" points="1816.08,914.48 1828.24,950.26 1866.03,950.77 1835.76,973.39 1846.95,1009.49 1816.08,987.69 
						1785.21,1009.49 1796.4,973.39 1766.13,950.77 1803.92,950.26 					"/>
				</g>
			</g>
		</g>
	</g>
</g>
</svg>
