<?xml version="1.0" encoding="utf-8"?>
<!-- Generator: Adobe Illustrator 26.0.0, SVG Export Plug-In . SVG Version: 6.00 Build 0)  -->
<svg version="1.1" xmlns="http://www.w3.org/2000/svg" xmlns:xlink="http://www.w3.org/1999/xlink" x="0px" y="0px"
	 viewBox="0 0 1366 768" style="enable-background:new 0 0 1366 768;" xml:space="preserve">
<style type="text/css">
	.st0{fill:url(#SVGID_1_);}
	.st1{fill:#FFDC21;}
	.st2{fill:url(#SVGID_00000060737113578782011060000001726209015418952869_);}
	.st3{fill:url(#SVGID_00000007396903267490227730000014000087721636576427_);}
	.st4{display:none;fill:#808080;}
	.st5{font-family:'ErasITC-Bold';}
	.st6{font-size:140.8209px;}
	.st7{display:none;fill:#FFFFFF;}
	.st8{fill:#808080;}
	.st9{font-size:143.7679px;}
	.st10{fill:#FFFFFF;}
	.st11{display:none;}
	.st12{display:inline;fill:#666666;}
	.st13{font-size:149.517px;}
	.st14{display:inline;fill:#FFFFFF;}
</style>
<g id="Layer_2">
	<g>
		<linearGradient id="SVGID_1_" gradientUnits="userSpaceOnUse" x1="363.5" y1="384" x2="1002.5" y2="384">
			<stop  offset="1.097525e-06" style="stop-color:#FCB821"/>
			<stop  offset="1" style="stop-color:#FCFF41"/>
		</linearGradient>
		<path class="st0" d="M982.85,496.5h-599.7c-10.85,0-19.65-8.8-19.65-19.65v-185.7c0-10.85,8.8-19.65,19.65-19.65h599.7
			c10.85,0,19.65,8.8,19.65,19.65v185.7C1002.5,487.7,993.7,496.5,982.85,496.5z"/>
		<path class="st1" d="M970.4,487.09H395.6c-10.85,0-19.65-8.8-19.65-19.65V300.56c0-10.85,8.8-19.65,19.65-19.65H970.4
			c10.85,0,19.65,8.8,19.65,19.65v166.89C990.05,478.3,981.25,487.09,970.4,487.09z"/>
		
			<linearGradient id="SVGID_00000102519246102428205250000015075041730701042354_" gradientUnits="userSpaceOnUse" x1="505.4919" y1="206.4919" x2="868.3555" y2="569.3555">
			<stop  offset="0" style="stop-color:#FCB821"/>
			<stop  offset="0.6686" style="stop-color:#FCE636"/>
			<stop  offset="1" style="stop-color:#FCFF41"/>
		</linearGradient>
		<path style="fill:url(#SVGID_00000102519246102428205250000015075041730701042354_);" d="M957.95,477.68H408.05
			c-10.85,0-19.65-8.8-19.65-19.65V309.96c0-10.85,8.8-19.65,19.65-19.65h549.91c10.85,0,19.65,8.8,19.65,19.65v148.07
			C977.6,468.89,968.81,477.68,957.95,477.68z"/>
		
			<linearGradient id="SVGID_00000164472960275018543300000005426491486520299435_" gradientUnits="userSpaceOnUse" x1="508.9241" y1="209.9241" x2="864.7715" y2="565.7715">
			<stop  offset="0" style="stop-color:#FCB821"/>
			<stop  offset="0.6686" style="stop-color:#FCE636"/>
			<stop  offset="1" style="stop-color:#FCFF41"/>
		</linearGradient>
		<path style="fill:url(#SVGID_00000164472960275018543300000005426491486520299435_);" d="M953.81,474.55H412.19
			c-10.85,0-19.65-8.8-19.65-19.65V313.1c0-10.85,8.8-19.65,19.65-19.65h541.61c10.85,0,19.65,8.8,19.65,19.65v141.8
			C973.45,465.75,964.66,474.55,953.81,474.55z"/>
	</g>
	<text transform="matrix(0.8687 0 0 1 440.6169 431.0842)" class="st4 st5 st6">ACCEPT</text>
	<text transform="matrix(0.8687 0 0 1 434.6169 425.0842)" class="st7 st5 st6">ACCEPT</text>
</g>
<g id="Layer_3">
	<g>
		<text transform="matrix(0.9953 0 0 1 490.509 429.9487)" class="st8 st5 st9">PLAY</text>
		<text transform="matrix(0.9953 0 0 1 484.8547 421.939)" class="st10 st5 st9">PLAY</text>
	</g>
</g>
<g id="Layer_4" class="st11">
	<text transform="matrix(0.8242 0 0 1 492.5 432.6213)" class="st12 st5 st13">STATS</text>
	<text transform="matrix(0.8242 0 0 1 486.5 427.6213)" class="st14 st5 st13">STATS</text>
</g>
</svg>
