<?xml version="1.0" encoding="utf-8"?>
<!-- Generator: Adobe Illustrator 26.0.0, SVG Export Plug-In . SVG Version: 6.00 Build 0)  -->
<svg version="1.1" xmlns="http://www.w3.org/2000/svg" xmlns:xlink="http://www.w3.org/1999/xlink" x="0px" y="0px"
	 viewBox="0 0 1920 1080" style="enable-background:new 0 0 1920 1080;" xml:space="preserve">
<style type="text/css">
	.st0{display:none;}
	.st1{display:inline;fill:#FFFFFF;}
	.st2{display:inline;fill:#BB133E;}
	.st3{display:inline;fill:#282E3E;}
	.st4{display:inline;}
	.st5{fill:#FFFFFF;}
	.st6{fill:#C7B299;stroke:#000000;stroke-width:4;stroke-miterlimit:10;}
	.st7{fill:#998675;stroke:#000000;stroke-width:4;stroke-miterlimit:10;}
</style>
<g id="Layer_1" class="st0">
	<rect x="-1" y="312" class="st1" width="1921" height="191.37"/>
	<rect y="503.37" class="st2" width="1921" height="192.73"/>
	<rect x="1" y="697.1" class="st1" width="1920" height="191.37"/>
	<rect x="1" y="889.48" class="st2" width="1919" height="191.37"/>
	<rect x="-1" y="1" class="st3" width="1921" height="311"/>
	<g class="st4">
		<g>
			<g>
				<polygon class="st5" points="1998.49,21.38 2012.44,63.33 2056.64,63.63 2021.06,89.86 2034.43,132 1998.49,106.26 1962.55,132 
					1975.92,89.86 1940.33,63.63 1984.54,63.33 				"/>
			</g>
			<g>
				<polygon class="st5" points="1648.49,21.38 1662.44,63.33 1706.64,63.63 1671.06,89.86 1684.43,132 1648.49,106.26 1612.55,132 
					1625.92,89.86 1590.33,63.63 1634.54,63.33 				"/>
			</g>
			<g>
				<polygon class="st5" points="1298.49,21.38 1312.44,63.33 1356.64,63.63 1321.06,89.86 1334.43,132 1298.49,106.26 1262.55,132 
					1275.92,89.86 1240.33,63.63 1284.54,63.33 				"/>
			</g>
			<g>
				<polygon class="st5" points="948.49,21.38 962.44,63.33 1006.64,63.63 971.06,89.86 984.43,132 948.49,106.26 912.55,132 
					925.92,89.86 890.33,63.63 934.54,63.33 				"/>
			</g>
			<g>
				<polygon class="st5" points="598.49,21.38 612.44,63.33 656.64,63.63 621.06,89.86 634.43,132 598.49,106.26 562.55,132 
					575.92,89.86 540.33,63.63 584.54,63.33 				"/>
			</g>
			<g>
				<polygon class="st5" points="248.49,21.38 262.44,63.33 306.64,63.63 271.06,89.86 284.43,132 248.49,106.26 212.55,132 
					225.92,89.86 190.33,63.63 234.54,63.33 				"/>
			</g>
			<g>
				<polygon class="st5" points="-101.51,21.38 -87.56,63.33 -43.36,63.63 -78.94,89.86 -65.57,132 -101.51,106.26 -137.45,132 
					-124.08,89.86 -159.67,63.63 -115.46,63.33 				"/>
			</g>
		</g>
		<g>
			<g>
				<polygon class="st5" points="2179.81,169.11 2193.76,211.06 2237.97,211.36 2202.38,237.59 2215.75,279.73 2179.81,253.99 
					2143.87,279.73 2157.24,237.59 2121.65,211.36 2165.86,211.06 				"/>
			</g>
			<g>
				<polygon class="st5" points="1829.81,169.11 1843.76,211.06 1887.97,211.36 1852.38,237.59 1865.75,279.73 1829.81,253.99 
					1793.87,279.73 1807.24,237.59 1771.65,211.36 1815.86,211.06 				"/>
			</g>
			<g>
				<polygon class="st5" points="1479.81,169.11 1493.76,211.06 1537.97,211.36 1502.38,237.59 1515.75,279.73 1479.81,253.99 
					1443.87,279.73 1457.24,237.59 1421.65,211.36 1465.86,211.06 				"/>
			</g>
			<g>
				<polygon class="st5" points="1129.81,169.11 1143.76,211.06 1187.97,211.36 1152.38,237.59 1165.75,279.73 1129.81,253.99 
					1093.87,279.73 1107.24,237.59 1071.65,211.36 1115.86,211.06 				"/>
			</g>
			<g>
				<polygon class="st5" points="779.81,169.11 793.76,211.06 837.97,211.36 802.38,237.59 815.75,279.73 779.81,253.99 
					743.87,279.73 757.24,237.59 721.65,211.36 765.86,211.06 				"/>
			</g>
			<g>
				<polygon class="st5" points="429.81,169.11 443.76,211.06 487.97,211.36 452.38,237.59 465.75,279.73 429.81,253.99 
					393.87,279.73 407.24,237.59 371.65,211.36 415.86,211.06 				"/>
			</g>
			<g>
				<polygon class="st5" points="79.81,169.11 93.76,211.06 137.97,211.36 102.38,237.59 115.75,279.73 79.81,253.99 43.87,279.73 
					57.24,237.59 21.65,211.36 65.86,211.06 				"/>
			</g>
		</g>
	</g>
</g>
<g id="Layer_2">
	<path class="st6" d="M265,122c-59,60-118,120-177,180v-1c-0.33,227-0.67,454-1,681v-1.01c0-0.55,0.44-0.99,0.99-0.99h1554.4
		c0.26,0,0.51-0.1,0.7-0.29l170.62-170.23c0.19-0.19,0.29-0.44,0.29-0.7c0-232.26,0-464.52,0-696.79l0,0
		C1297.67,115.33,781.33,118.67,265,122z"/>
	<path class="st7" d="M300.04,264c-18.41-7.78-65.62-24.63-122.66-10.47C132.29,264.72,102.33,290,88,304
		c57.77-58.84,115.53-117.69,173.3-176.53C274.21,172.98,287.13,218.49,300.04,264z"/>
	<path class="st7" d="M1685.55,894.53c7.04-51.51-18.97-91.34-30.45-106.77c52.69,6.91,105.38,13.81,158.07,20.71
		C1756.45,864.98,1699.72,921.49,1643,978C1656.41,964.04,1679.99,935.24,1685.55,894.53z"/>
</g>
</svg>
